<?xml version="1.0" encoding="UTF-8" standalone="no"?>
<!-- Created with Inkscape (http://www.inkscape.org/) -->
<svg xmlns:dc="http://purl.org/dc/elements/1.1/" xmlns:cc="http://creativecommons.org/ns#" xmlns:rdf="http://www.w3.org/1999/02/22-rdf-syntax-ns#" xmlns:svg="http://www.w3.org/2000/svg" xmlns="http://www.w3.org/2000/svg" version="1.1" width="300" height="195.61807" id="svg3852">
  <defs id="defs3854"/>
  <metadata id="metadata3857">
    <rdf:RDF>
      <cc:Work rdf:about="">
        <dc:format>image/svg+xml</dc:format>
        <dc:type rdf:resource="http://purl.org/dc/dcmitype/StillImage"/>
        <dc:title/>
      </cc:Work>
    </rdf:RDF>
  </metadata>
  <g transform="translate(-412.85714,-548.83886)" id="layer1">
    <g transform="matrix(3.3029644,0,0,3.3029644,603.67858,403.13965)" id="g3779">
      <path d="m -51.55778,93.6779 0,-5.72875 -1.89125,5.72875 -1.26125,0 -1.86625,-5.72875 0,5.72875 -1.19625,0 0,-7.37625 1.72625,0 2,5.87125 1.99125,-5.8825 1.71375,0 0,7.3875 -1.21625,0" id="path2903" style="fill:#000000;fill-opacity:1;fill-rule:nonzero;stroke:none"/>
      <path d="m -45.54778,87.75165 -1.04,2.91875 2.0675,0 L -45.54778,87.75165 z m 2.11125,5.92625 -0.685,-1.88125 -2.875,0 -0.675,1.88125 -1.36,0 2.8525,-7.37625 1.3375,0 2.8325,7.37625 -1.4275,0" id="path2907" style="fill:#000000;fill-opacity:1;fill-rule:nonzero;stroke:none"/>
      <path d="m -36.57653,87.6929 c -0.17625,-0.165 -0.2425,-0.23 -1.55875,-0.23 l -1.2625,0 0,2.045 1.34,0 c 0.3425,0 1.105,0.01125 1.325,-0.08875 0.16625,-0.07625 0.3775,-0.2875 0.3775,-0.93875 0,-0.4325 -0.1,-0.67625 -0.22125,-0.7875 m 0.2325,5.985 0,-1.91375 c 0,-1.11625 0,-1.08375 -1.8025,-1.08375 l -1.25125,0 0,2.9975 -1.3025,0 0,-7.37625 2.58625,0 c 1.67125,0 3.04125,0.06625 3.04125,2.1225 0,0.885 -0.1775,1.41625 -0.7175,1.635 0.8175,0.245 0.7175,1.2075 0.7175,1.81625 l 0,1.8025 -1.27125,0" id="path2943" style="fill:#000000;fill-opacity:1;fill-rule:nonzero;stroke:none"/>
      <path d="m -28.58778,88.3704 c 0,-0.74125 -0.30875,-0.9625 -1.58125,-0.9625 -1.48125,0 -1.71375,0.47625 -1.71375,2.5875 0,2.11125 0.22125,2.5775 1.70375,2.5775 1.27,0 1.58,-0.21 1.58,-0.95125 l 1.2825,0 c 0,1.66875 -1.0825,2.145 -2.76375,2.145 -3.08625,0 -3.10875,-1.67 -3.10875,-3.78125 0,-2.11125 0.0325,-3.76 3.11875,-3.76 1.68125,0 2.765,0.47375 2.765,2.145 l -1.2825,0" id="path2947" style="fill:#000000;fill-opacity:1;fill-rule:nonzero;stroke:none"/>
      <path d="m -21.45903,93.6779 0,-3.185 -3.0075,0 0,3.185 -1.305,0 0,-7.37625 1.305,0 0,3.01875 3.0075,0 0,-3.01875 1.30375,0 0,7.37625 -1.30375,0" id="path2951" style="fill:#000000;fill-opacity:1;fill-rule:nonzero;stroke:none"/>
      <path d="m -15.59278,85.5504 -1.3925,0 1.525,-1.405 1.3925,0 L -15.59278,85.5504 z m -2.49875,8.1275 0,-7.375 5.07375,0 0,1.16 -3.79125,0 0,1.87 3.68125,0 0,1.15 -3.68125,0 0,2.0225 3.79125,0 0,1.1725 -5.07375,0" id="path2955" style="fill:#000000;fill-opacity:1;fill-rule:nonzero;stroke:none"/>
      <path d="m -6.00653,87.4629 -1.38375,0 0,5.0425 1.39375,0 c 1.48125,0 1.935,-0.0775 1.935,-2.51 0,-2.4325 -0.46375,-2.5325 -1.945,-2.5325 m 2.775,5.22 c -0.53,0.785 -1.32625,0.995 -2.6975,0.995 l -2.74375,0 0,-7.37625 2.7325,0 c 1.37,0 2.1675,0.22125 2.6975,1.005 0.3875,0.5775 0.48625,1.23875 0.48625,2.68875 0,1.44875 -0.0875,2.11 -0.475,2.6875" id="path2959" style="fill:#000000;fill-opacity:1;fill-rule:nonzero;stroke:none"/>
      <path d="m 4.72472,91.52165 c -0.08875,1.5925 -1.09625,2.24375 -2.7875,2.24375 -1.6925,0 -2.69875,-0.65125 -2.78625,-2.24375 -0.0225,-0.3425 -0.0225,-0.8075 -0.0225,-1.55 l 0,-3.67 1.305,0 0,3.67 c 0,1.915 -0.09875,2.6 1.50375,2.6 1.6475,0 1.5025,-0.685 1.5025,-2.6 l 0,-3.67 1.305,0 0,3.67 c 0,0.7425 0,1.2075 -0.02,1.55" id="path2963" style="fill:#000000;fill-opacity:1;fill-rule:nonzero;stroke:none"/>
      <path d="m 10.52847,87.4629 0,1.86875 3.56125,0 0,1.15125 -3.56125,0 0,3.195 -1.305,0 0,-7.37625 4.965,0 0,1.16125 -3.66,0" id="path2967" style="fill:#000000;fill-opacity:1;fill-rule:nonzero;stroke:none"/>
      <path d="m 16.00472,93.67915 1.30525,0 0,-7.376 -1.30525,0 L 16.00472,93.67915 Z" id="path2969" style="fill:#000000;fill-opacity:1;fill-rule:nonzero;stroke:none"/>
      <path d="m 19.72222,93.6779 0,-7.37625 1.30375,0 0,6.2025 3.6625,0 0,1.17375 -4.96625,0" id="path2973" style="fill:#000000;fill-opacity:1;fill-rule:nonzero;stroke:none"/>
      <path d="m 31.83847,93.6779 0,-5.72875 -1.89125,5.72875 -1.26,0 -1.86875,-5.72875 0,5.72875 -1.195,0 0,-7.37625 1.72625,0 2.00125,5.87125 1.99,-5.8825 1.71375,0 0,7.3875 -1.21625,0" id="path2977" style="fill:#000000;fill-opacity:1;fill-rule:nonzero;stroke:none"/>
      <path d="m -46.38903,99.33415 0,1.185 2.2625,0 0,0.7325 -2.2625,0 0,2.02875 -0.82875,0 0,-4.6825 3.15125,0 0,0.73625 -2.3225,0" id="path2981" style="fill:#000000;fill-opacity:1;fill-rule:nonzero;stroke:none"/>
      <path d="m -43.15153,103.28165 0,-4.68375 3.22375,0 0,0.7375 -2.41,0 0,1.185 2.335,0 0,0.7325 -2.335,0 0,1.28375 2.41,0 0,0.745 -3.22375,0" id="path2985" style="fill:#000000;fill-opacity:1;fill-rule:nonzero;stroke:none"/>
      <path d="m -37.23153,103.33665 c -1.13,0 -1.8825,-0.27875 -1.8825,-1.36125 l 0.82875,0 c 0,0.47 0.2225,0.61625 1.06875,0.61625 0.905,0 1.0525,-0.22625 1.0525,-0.735 0,-0.45625 -0.17375,-0.52 -0.52625,-0.5475 -1.03375,-0.08 -2.42375,0.20875 -2.42375,-1.335 0,-1.08625 0.63125,-1.4275 1.87,-1.4275 1.12875,0 1.85625,0.29 1.85625,1.36375 l -0.81125,0 c 0,-0.55375 -0.35,-0.62 -1.06125,-0.62 -0.935,0 -1.025,0.17625 -1.025,0.66875 0,0.435 0.19625,0.49 0.52625,0.52125 1.035,0.0825 2.42875,-0.2175 2.4225,1.3425 -0.0062,1.05125 -0.6225,1.51375 -1.895,1.51375" id="path2989" style="fill:#000000;fill-opacity:1;fill-rule:nonzero;stroke:none"/>
      <path d="m -32.68778,99.33415 0,3.94625 -0.83,0 0,-3.94625 -1.42625,0 0,-0.73625 3.68125,0 0,0.73625 -1.425,0" id="path2993" style="fill:#000000;fill-opacity:1;fill-rule:nonzero;stroke:none"/>
      <path d="m -30.60278,103.28165 0.828575,0 0,-4.683625 -0.828575,0 L -30.60278,103.28165 Z" id="path2995" style="fill:#000000;fill-opacity:1;fill-rule:nonzero;stroke:none"/>
      <path d="m -26.65403,103.28165 -0.81625,0 -1.75,-4.68375 0.88625,0 1.2875,3.6375 1.2825,-3.6375 0.86875,0 -1.75875,4.68375" id="path2999" style="fill:#000000;fill-opacity:1;fill-rule:nonzero;stroke:none"/>
      <path d="m -22.98528,99.5179 -0.65625,1.8525 1.31375,0 L -22.98528,99.5179 z m 1.34375,3.7625 -0.435,-1.19125 -1.8275,0 -0.4275,1.19125 -0.865,0 1.81375,-4.6825 0.84625,0 1.79875,4.6825 -0.90375,0" id="path3003" style="fill:#000000;fill-opacity:1;fill-rule:nonzero;stroke:none"/>
      <path d="m -20.14653,103.28165 0,-4.68375 0.8275,0 0,3.93875 2.325,0 0,0.745 -3.1525,0" id="path3007" style="fill:#000000;fill-opacity:1;fill-rule:nonzero;stroke:none"/>
      <path d="m -13.14778,99.33415 -0.87625,0 0,3.20125 0.8825,0 c 0.9425,0 1.2275,-0.0475 1.2275,-1.59375 0,-1.54375 -0.29125,-1.6075 -1.23375,-1.6075 m 1.765,3.31375 c -0.3375,0.49875 -0.8425,0.6325 -1.715,0.6325 l -1.73875,0 0,-4.6825 1.73125,0 c 0.8725,0 1.37875,0.14125 1.7125,0.6375 0.2475,0.36625 0.30875,0.78625 0.30875,1.70625 0,0.92 -0.055,1.33875 -0.29875,1.70625" id="path3011" style="fill:#000000;fill-opacity:1;fill-rule:nonzero;stroke:none"/>
      <path d="m -10.09903,103.28165 0,-4.68375 3.22375,0 0,0.7375 -2.40625,0 0,1.185 2.335,0 0,0.7325 -2.335,0 0,1.28375 2.40625,0 0,0.745 -3.22375,0" id="path3015" style="fill:#000000;fill-opacity:1;fill-rule:nonzero;stroke:none"/>
      <path d="m -1.50403,99.9104 c 0,-0.47125 -0.19375,-0.61125 -1.0025,-0.61125 -0.94125,0 -1.09,0.3025 -1.09,1.6425 0,1.33875 0.14,1.6375 1.0825,1.6375 0.8075,0 1.00375,-0.13375 1.00375,-0.60375 l 0.81625,0 c 0,1.05875 -0.69,1.36125 -1.75625,1.36125 -1.96,0 -1.975,-1.06 -1.975,-2.40125 0,-1.34125 0.02375,-2.38875 1.98125,-2.38875 1.0675,0 1.75625,0.30375 1.75625,1.36375 l -0.81625,0" id="path3019" style="fill:#000000;fill-opacity:1;fill-rule:nonzero;stroke:none"/>
      <path d="m 1.87347,99.5179 -0.6575,1.8525 1.31,0 L 1.87347,99.5179 z m 1.34125,3.7625 -0.4325,-1.19125 -1.82625,0 -0.43,1.19125 -0.865,0 1.81125,-4.6825 0.8525,0 1.79875,4.6825 -0.90875,0" id="path3023" style="fill:#000000;fill-opacity:1;fill-rule:nonzero;stroke:none"/>
      <path d="m 7.42847,103.28165 -1.9475,-3.36375 0,3.36375 -0.77,0 0,-4.68375 0.845,0 1.95125,3.3375 0,-3.3375 0.77375,0 0,4.68375 -0.8525,0" id="path3027" style="fill:#000000;fill-opacity:1;fill-rule:nonzero;stroke:none"/>
      <path d="m 12.41472,103.28165 -1.9425,-3.36375 0,3.36375 -0.77625,0 0,-4.68375 0.84625,0 1.95125,3.3375 0,-3.3375 0.77,0 0,4.68375 -0.84875,0" id="path3031" style="fill:#000000;fill-opacity:1;fill-rule:nonzero;stroke:none"/>
      <path d="m 14.68347,103.28165 0,-4.68375 3.225,0 0,0.7375 -2.40875,0 0,1.185 2.3375,0 0,0.7325 -2.3375,0 0,1.28375 2.40875,0 0,0.745 -3.225,0" id="path3035" style="fill:#000000;fill-opacity:1;fill-rule:nonzero;stroke:none"/>
      <path d="m 20.60472,103.33665 c -1.1325,0 -1.88375,-0.27875 -1.88375,-1.36125 l 0.83,0 c 0,0.47 0.22625,0.61625 1.06625,0.61625 0.91,0 1.055,-0.22625 1.055,-0.735 0,-0.45625 -0.175,-0.52 -0.52875,-0.5475 -1.03125,-0.08 -2.4225,0.20875 -2.4225,-1.335 0,-1.08625 0.63,-1.4275 1.86875,-1.4275 1.13,0 1.86125,0.29 1.86125,1.36375 l -0.815,0 c 0,-0.55375 -0.35125,-0.62 -1.06125,-0.62 -0.9325,0 -1.02375,0.17625 -1.02375,0.66875 0,0.435 0.1975,0.49 0.52375,0.52125 1.03375,0.0825 2.435,-0.2175 2.425,1.3425 -0.0063,1.05125 -0.6225,1.51375 -1.895,1.51375" id="path3039" style="fill:#000000;fill-opacity:1;fill-rule:nonzero;stroke:none"/>
      <path d="m -12.44903,79.1779 c -16.835,0 -31.24,-7.79375 -31.24,-17.0725 0,-9.27875 14.735,-17.24375 31.24,-17.24375 16.7975,0 31.22375,7.965 31.22375,17.24375 0,9.27875 -14.5,17.0725 -31.22375,17.0725 m 0.035,-35.06625 c -18.3,0 -33.00125,8.14125 -33.00125,18.0025 0,9.8625 14.555,18.00125 33.00125,18.00125 18.33875,0 32.9975,-8.13875 32.9975,-18.00125 0,-9.86125 -14.7325,-18.0025 -32.9975,-18.0025" id="path3043" style="fill:#000000;fill-opacity:1;fill-rule:nonzero;stroke:none"/>
      <path d="m 4.06597,63.15415 c -0.0275,-0.34375 0.36875,-0.65 0.61625,-0.88375 1.0725,-0.87625 1.23375,-0.0225 1.23375,-0.0225 -0.4875,0.3825 -1.18,0.83625 -1.85,0.90625 m -3.44,-2.4575 c -0.36,0.59125 -0.10125,1.435 -0.5725,1.98625 l -3.1875,-0.41125 c 1.85125,-0.65875 3.355,-1.92375 4.24375,-2.4375 L 0.62597,60.69665 z m -22.51,-0.46625 c -0.21625,-0.1325 -0.045,-0.395 0.02125,-0.5025 0.065,-0.08 0.7975,-1.3975 1.445,-1.05875 0.115,0.32625 -1.0075,1.635 -1.46625,1.56125 m 34.3525,-0.3575 c -1.0175,0.2075 -1.96,0.5325 -2.92625,0.82125 -0.6225,0.185 -1.255,0.35625 -1.92375,0.47125 l -0.27375,-0.0037 0.12,-0.18125 c 0.0925,-0.09625 0.1875,-0.1925 0.28375,-0.28625 0.965,-0.94875 2.06125,-1.765 3.07,-2.685 0.3175,-0.36875 1.0125,-0.6525 0.7875,-1.325 -0.20625,-0.10625 -0.7625,0.1175 -1.02875,0.235 -1.965,1.015 -3.7725,2.155 -5.4325,3.73875 -0.05,0.0475 -0.09875,0.09375 -0.1475,0.13875 -0.94125,0.71375 -1.115,2.3625 -2.5275,2.26625 -0.895,-0.0825 -1.0225,-0.07375 -1.3675,-0.195 1.44,-1.11125 4.21,-4.785 4.45625,-5.6625 0,0 0.24875,-0.795 -0.095,-0.76875 -1.32,0.48 -2.565,1.5975 -3.59375,2.5025 0.09625,-0.44625 0.82,-1.29625 0.4675,-1.81 -2.285,0.48125 -5.5075,3.5375 -5.5225,3.54875 -0.61375,0.405 -0.8375,1.71125 -1.7925,1.5175 -0.59625,-0.0825 -1.31375,-0.09 -1.665,-0.29125 0.61375,-0.365 1.2,-0.77375 1.76875,-1.21 1.31875,-1.015 2.545,-2.17875 3.79375,-3.30125 0.07125,-0.1625 0.48375,-0.32625 0.24875,-0.5725 -0.3975,-0.32 -0.865,0.15125 -1.2975,0.22625 -1.97875,0.8675 -3.31625,2.03375 -4.62125,3.6475 -0.245,0.3 -0.60875,0.6875 -0.82625,1.03625 -0.9325,-0.11 -1.43125,-0.06125 -1.8875,-0.355 0.27875,-0.23125 0.56125,-0.45625 0.84625,-0.68125 1.52125,-1.20625 3.075,-2.3975 4.235,-4.18375 -0.11625,-0.6075 -0.7275,-0.12125 -1.02,-0.0062 -2.07875,1.02625 -3.78375,2.29125 -5.0925,4.295 -0.08125,0.12375 -0.16,0.25125 -0.23375,0.3825 -0.91625,-0.02375 -1.7075,-0.20375 -2.4975,-0.3825 -0.015,-0.0062 -0.0325,-0.0087 -0.05,-0.01375 l 0.0075,-0.08375 c 1.99125,-1.01875 3.765,-2.7675 5.13875,-4.83375 0,0 1.14,-1.99875 -1.36125,-0.34625 -1.865,1.2 -3.565,2.78375 -4.755,5.03625 0,0 -1.255,0.0475 -1.255,-0.08875 1.20875,-1.485 2.61,-3.3975 3.32,-5.3525 0.0675,-0.305 0.25375,-0.9425 -0.195,-1.01 -1.68,0.70375 -2.79,2.67875 -3.68875,4.53125 -0.2775,0.54375 -0.42625,1.23 -0.67125,1.74875 -1.12375,-0.055 -1.9,0.04375 -2.97875,-0.27875 1.3525,-1.1875 2.83,-2.165 4.0625,-3.59125 0.20625,-0.38875 1.5925,-1.3375 1.5575,-2.56125 -0.43,-0.265 -0.865,0.04875 -1.1275,0.2425 l -3.79625,3.02375 -0.19875,0.01 c 0.605,-1.08125 1.925,-2.665 2.4675,-3.78375 0.1825,-0.375 0.4075,-0.71625 0.39125,-1.1725 l -0.33375,-0.1075 c -2.74375,1.17875 -5.10875,3.8675 -6.0375,7.335 -0.22625,0.32125 -0.33625,0.93625 -0.80375,0.75375 -0.05875,-0.9425 -0.35125,-1.81875 -0.675,-2.67125 -1.175,-2.46 -2.8625,-4.25375 -5.02125,-5.55 -0.3525,-0.20125 -0.55625,0.17875 -0.43875,0.4725 0.3025,1.72875 1.37125,2.8175 2.10875,4.13 0.875,1.35625 2.06375,2.58125 3.06375,3.8025 -0.34125,0.11625 -8.14375,1.975 -9.53125,3.1 -0.72875,0.4 -1.89375,1.33 -1.87625,3.37125 0.06125,0.6025 0.48125,1.19375 1.015,1.37375 0.505,0.07125 0.86125,0.11625 1.1925,-0.11125 1.43875,-1.8325 3.10625,-3.50875 4.96375,-4.625 1.27375,-0.6675 2.21125,-1.3225 3.675,-1.50625 0.60375,0.56375 0.99375,1.305 1.81875,1.98625 1.6225,1.47875 3.04875,2.4825 5.2875,2.84875 l 0.2225,-0.075 -0.0825,-0.205 c -1.1825,-1.7225 -2.9925,-2.81 -4.845,-3.70875 -0.31625,-0.24 -1.085,-0.64625 -1.1275,-1.1325 1.14125,-0.38125 2.66,-0.4925 4.03125,-0.16375 1.6375,2.845 3.445,5.9675 6.07,7.75875 0.195,0.04625 0.3325,-0.225 0.235,-0.405 -1.82125,-4.43375 -2.98375,-4.8325 -4.85125,-6.87 -0.1,-0.15 -0.23875,-0.50375 0.0275,-0.62125 l 1.7425,0.0275 c 0.56125,0.0775 1.32875,-0.08125 1.465,0.16375 0.085,2.93125 1.9725,5.17375 3.1125,7.4025 0,0 0.365,0.21125 0.34625,-0.1725 l 0.0125,-0.02375 c -0.4675,-5.16375 -2.40125,-6.35125 -2.69375,-7.22875 0.29875,-0.02 0.625,-0.0025 0.86875,0.1325 1.2275,2.4975 2.89375,4.3825 5.0875,5.7975 0.04875,0.03 0.3225,0.06375 0.14375,-0.33375 -0.6375,-2.145 -2.60875,-3.2425 -3.8875,-4.86 l -0.22375,-0.4175 0.25875,-0.03375 c 0.5475,0.10875 1.2875,0.23125 1.69,0.495 0.73,1.3975 1.715,2.4775 2.76375,3.4775 0.8675,0.78625 1.61,1.7025 2.92125,1.96 l 0.13875,-0.02125 0.0425,-0.1125 -0.04125,-0.16625 c -0.81125,-2.12375 -3,-3.01625 -4.545,-4.515 -0.105,-0.09375 -0.2975,-0.48 -0.00875,-0.54 l 2.48875,0.36125 c 3.74375,4.9975 5.19125,4.7975 5.19125,4.7975 0,0 1.1225,0.26125 0.60875,-0.5625 -1.22125,-1.26625 -2.28375,-1.84875 -3.74375,-3.00625 -0.2625,-0.25 -0.9175,-0.6925 -0.85,-1.14 0.535,0.08125 0.625,0.075 1.71375,0.19875 0.34375,0.0475 0.80625,0.10875 1.07,0.22625 1.955,0.8725 2.125,3.6075 6.86875,4.18125 0.17,0.01625 0.20625,-0.21125 0.08875,-0.36125 -1.355,-1.055 -4.88875,-3.425 -5.10625,-3.69625 0.45125,0.04125 2.35125,0.3125 2.6525,0.4525 2.385,1.2875 3.84625,2.2475 7.26125,1.79625 C 9.45847,65.3054 8.98222,65.13165 8.57722,64.9729 L 6.65597,64.2254 c -0.24875,-0.07875 -1.31625,-0.2875 -1.7,-0.41125 2.04375,-0.645 4.7375,-1.38875 6.5375,-2.48 0.285,-0.22375 0.6225,-0.39625 0.9,-0.64 0.18875,-0.1675 0.34875,-0.37125 0.44875,-0.64875 0.0975,-0.30375 -0.37375,-0.1725 -0.37375,-0.1725" id="path3047" style="fill:#000000;fill-opacity:1;fill-rule:nonzero;stroke:none"/>
    </g>
  </g>
</svg>